#!OML:ASF F:\VICON\USERDATA\INSTALL\rory3\rory3.ASF
:FULLY-SPECIFIED
:DEGREES
465
root -0.0235482 18.0197 -1.04116 2.69531 -12.0178 1.3341
lowerback -0.992084 -2.08935 -3.16936
upperback -0.344612 -2.76294 1.67348
thorax 0.434739 -1.38657 3.45277
lowerneck -27.1348 -1.35106 -8.49855
upperneck 25.147 0.929927 2.47333
head 12.8749 -0.0929288 2.54108
rclavicle 1.18401e-014 8.34896e-015
rhumerus -31.8874 -4.3161 -82.7197
rradius 31.5075
rwrist 20.4188
rhand -17.6251 8.22659
rfingers 7.12502
rthumb 8.6321 -21.5769
lclavicle 1.18401e-014 8.34896e-015
lhumerus -22.5899 -7.07998 91.3265
lradius 70.4807
lwrist -0.892118
lhand -29.733 22.1066
lfingers 7.12502
lthumb -3.05962 52.0644
rfemur -9.32696 9.78226 14.6408
rtibia 24.2142
rfoot -14.7972 -3.0304
rtoes 5.38073
lfemur 0.250142 -1.87705 -21.9307
ltibia 10.8126
lfoot -9.40508 7.36008
ltoes -11.2069
466
root -0.0243246 18.0204 -1.04445 2.69539 -12.0279 1.3067
lowerback -1.02899 -2.07476 -3.11582
upperback -0.305919 -2.7428 1.66527
thorax 0.490557 -1.37804 3.41228
lowerneck -27.2439 -1.36908 -8.47465
upperneck 25.228 0.930848 2.3962
head 12.9301 -0.104083 2.50954
rclavicle 3.45388e-015 1.19271e-015
rhumerus -31.7831 -4.23608 -82.7689
rradius 31.5325
rwrist 20.2399
rhand -17.671 7.92038
rfingers 7.12502
rthumb 8.58784 -21.885
lclavicle 3.45388e-015 1.19271e-015
lhumerus -22.4274 -6.95317 91.2985
lradius 70.4063
lwrist -1.02137
lhand -29.6319 22.2063
lfingers 7.12502
lthumb -2.962 52.1655
rfemur -9.32534 9.84689 14.6607
rtibia 24.2128
rfoot -14.8344 -3.00616
rtoes 5.85712
lfemur 0.228681 -1.81424 -21.8908
ltibia 10.8104
lfoot -9.38196 7.31419
ltoes -11.4034
467
root -0.0259689 18.0197 -1.04665 2.66053 -12.0623 1.29725
lowerback -1.21156 -2.06882 -3.10192
upperback -0.140023 -2.72932 1.63721
thorax 0.760066 -1.37866 3.3648
lowerneck -27.3602 -1.35582 -8.39667
upperneck 25.1735 0.943976 2.34524
head 12.9301 -0.0960748 2.4789
rclavicle 1.61513e-014 -6.36111e-015
rhumerus -31.5278 -4.1593 -82.8718
rradius 31.5958
rwrist 20.0083
rhand -17.5923 7.75366
rfingers 7.12502
rthumb 8.66381 -22.0486
lclavicle 1.61513e-014 -6.36111e-015
lhumerus -22.0466 -6.89427 91.1632
lradius 70.2836
lwrist -1.03372
lhand -29.6199 22.3859
lfingers 7.12502
lthumb -2.95043 52.3453
rfemur -9.29208 9.95051 14.6794
rtibia 24.2146
rfoot -14.8866 -3.02089
rtoes 6.12837
lfemur 0.216254 -1.88217 -21.8806
ltibia 10.8337
lfoot -9.32615 7.44474
ltoes -11.3017
468
root -0.0256395 18.0192 -1.04714 2.66882 -12.13 1.27259
lowerback -1.36541 -2.05911 -3.06007
upperback -0.0411535 -2.71248 1.63037
thorax 0.944166 -1.37485 3.32646
lowerneck -27.4169 -1.34595 -8.39127
upperneck 25.1036 0.96192 2.34218
head 12.9114 -0.0857646 2.47912
rclavicle 6.22693e-014 -1.74931e-014
rhumerus -31.3908 -4.15323 -82.9097
rradius 31.6452
rwrist 20.0121
rhand -17.6352 7.77371
rfingers 7.12502
rthumb 8.62238 -22.0302
lclavicle 6.22693e-014 -1.74931e-014
lhumerus -21.7923 -6.86291 91.0812
lradius 70.1893
lwrist -1.00571
lhand -29.5721 22.5104
lfingers 7.12502
lthumb -2.90418 52.4703
rfemur -9.31795 9.98415 14.7002
rtibia 24.2231
rfoot -14.8821 -3.00198
rtoes 5.88231
lfemur 0.190829 -1.84558 -21.86
ltibia 10.8365
lfoot -9.32876 7.51413
ltoes -11.1332
469
root -0.0255742 18.0182 -1.04963 2.682 -12.1654 1.22012
lowerback -1.39279 -2.05409 -2.9982
upperback -0.0155577 -2.70616 1.64659
thorax 0.983195 -1.37253 3.30698
lowerneck -27.4967 -1.33746 -8.38698
upperneck 25.1293 1.00078 2.27904
head 12.9358 -0.0784281 2.46186
rclavicle -1.81391e-015 -7.95139e-016
rhumerus -31.3505 -4.11886 -82.919
rradius 31.6816
rwrist 20.0289
rhand -17.787 7.78192
rfingers 7.12502
rthumb 8.47588 -22.028
lclavicle -1.81391e-015 -7.95139e-016
lhumerus -21.685 -6.77462 91.0604
lradius 70.1495
lwrist -1.04345
lhand -29.6148 22.6194
lfingers 7.12502
lthumb -2.94542 52.5788
rfemur -9.32769 10.0354 14.7594
rtibia 24.2254
rfoot -14.8733 -2.99727
rtoes 5.52289
lfemur 0.176893 -1.78002 -21.7986
ltibia 10.8383
lfoot -9.33258 7.48127
ltoes -11.25
470
root -0.0261122 18.0183 -1.05167 2.66254 -12.1658 1.24303
lowerback -1.37049 -2.05848 -3.01107
upperback -0.0325757 -2.71241 1.6451
thorax 0.954244 -1.37496 3.31373
lowerneck -27.4755 -1.32546 -8.43601
upperneck 25.1872 1.04083 2.26867
head 12.9529 -0.0692945 2.47421
rclavicle 1.48343e-014 -1.59028e-015
rhumerus -31.4327 -4.01116 -82.9091
rradius 31.7984
rwrist 19.8986
rhand -17.8768 7.83715
rfingers 7.12502
rthumb 8.3892 -21.9762
lclavicle 1.48343e-014 -1.59028e-015
lhumerus -21.6225 -6.72686 91.0176
lradius 70.0961
lwrist -1.04242
lhand -29.6274 22.6252
lfingers 7.12502
lthumb -2.95763 52.5844
rfemur -9.31734 10.0337 14.7391
rtibia 24.2098
rfoot -14.8212 -3.00112
rtoes 5.21729
lfemur 0.175443 -1.8273 -21.822
ltibia 10.8705
lfoot -9.35104 7.49787
ltoes -11.1959
471
root -0.0264051 18.0192 -1.05189 2.64401 -12.1565 1.26732
lowerback -1.37297 -2.07877 -3.00535
upperback -0.0594971 -2.73942 1.62957
thorax 0.929122 -1.38753 3.29424
lowerneck -27.4121 -1.28923 -8.4261
upperneck 25.2308 1.09803 2.21686
head 12.9556 -0.0523468 2.46312
rclavicle -1.26477e-014 -3.97569e-015
rhumerus -31.5454 -3.86679 -82.9414
rradius 31.9185
rwrist 19.7301
rhand -18.0211 7.78519
rfingers 7.12502
rthumb 8.24993 -22.0337
lclavicle -1.26477e-014 -3.97569e-015
lhumerus -21.5983 -6.68916 90.9402
lradius 70.0313
lwrist -1.03685
lhand -29.6158 22.493
lfingers 7.12502
lthumb -2.94639 52.4524
rfemur -9.29797 9.99542 14.7156
rtibia 24.1903
rfoot -14.8112 -3.00055
rtoes 5.10417
lfemur 0.201511 -1.85595 -21.8493
ltibia 10.913
lfoot -9.38378 7.49466
ltoes -11.3817
472
root -0.0269789 18.0208 -1.05222 2.64668 -12.183 1.24429
lowerback -1.36025 -2.09826 -2.96916
upperback -0.0934381 -2.76647 1.63524
thorax 0.887858 -1.3997 3.28027
lowerneck -27.3282 -1.247 -8.3911
upperneck 25.185 1.16252 2.12349
head 12.9181 -0.0327232 2.4309
rclavicle -4.94477e-015 -4.77083e-015
rhumerus -31.6079 -3.81193 -82.9503
rradius 31.944
rwrist 19.7217
rhand -18.0829 7.6018
rfingers 7.12502
rthumb 8.19035 -22.2195
lclavicle -4.94477e-015 -4.77083e-015
lhumerus -21.583 -6.63159 90.8867
lradius 69.9754
lwrist -0.938017
lhand -29.7561 22.4428
lfingers 7.12502
lthumb -3.08188 52.4003
rfemur -9.2943 10.0123 14.747
rtibia 24.182
rfoot -14.8401 -3.03011
rtoes 4.97601
lfemur 0.238438 -1.8612 -21.8215
ltibia 10.8918
lfoot -9.40171 7.48912
ltoes -11.1513
473
root -0.0270405 18.02 -1.05224 2.68791 -12.2588 1.23091
lowerback -1.3653 -2.12729 -2.9795
upperback -0.159733 -2.80557 1.68226
thorax 0.828592 -1.41747 3.33479
lowerneck -27.2305 -1.17619 -8.39498
upperneck 25.1664 1.28846 2.01322
head 12.8855 0.00658994 2.41014
rclavicle 1.2598e-014 1.23246e-014
rhumerus -31.6764 -3.63536 -82.9364
rradius 31.9695
rwrist 19.6423
rhand -18.0452 7.33141
rfingers 7.12502
rthumb 8.22668 -22.4884
lclavicle 1.2598e-014 1.23246e-014
lhumerus -21.613 -6.45098 90.8698
lradius 69.9151
lwrist -0.813042
lhand -29.8868 22.3361
lfingers 7.12502
lthumb -3.20812 52.2917
rfemur -9.34399 10.0158 14.7447
rtibia 24.1715
rfoot -14.7852 -2.95804
rtoes 4.99506
lfemur 0.209075 -1.79126 -21.8125
ltibia 10.8686
lfoot -9.35627 7.51949
ltoes -11.4148
474
root -0.0276236 18.0207 -1.04931 2.68546 -12.3615 1.27742
lowerback -1.33646 -2.12778 -3.03277
upperback -0.240879 -2.80653 1.69752
thorax 0.732514 -1.41525 3.38351
lowerneck -27.1397 -1.12053 -8.42612
upperneck 25.2064 1.39955 1.92434
head 12.8789 0.0377943 2.4007
rclavicle 9.44227e-016 5.96354e-015
rhumerus -31.8144 -3.57105 -82.8978
rradius 31.9945
rwrist 19.6565
rhand -17.984 7.31591
rfingers 7.12502
rthumb 8.28574 -22.5016
lclavicle 9.44227e-016 5.96354e-015
lhumerus -21.724 -6.30712 90.8615
lradius 69.8909
lwrist -0.779607
lhand -29.9688 22.3069
lfingers 7.12502
lthumb -3.28736 52.2613
rfemur -9.35307 10.0505 14.6785
rtibia 24.1697
rfoot -14.7315 -2.88267
rtoes 4.79309
lfemur 0.265449 -1.746 -21.8729
ltibia 10.8071
lfoot -9.33435 7.55893
ltoes -11.6834
475
root -0.0298208 18.019 -1.04744 2.57108 -12.2828 1.29876
lowerback -1.12782 -2.17313 -3.06767
upperback -0.305096 -2.87229 1.71191
thorax 0.557506 -1.44415 3.4263
lowerneck -27.1218 -1.06358 -8.44828
upperneck 25.2628 1.50198 1.88323
head 12.8927 0.0724582 2.40788
rclavicle -7.20719e-014 4.37326e-015
rhumerus -31.9162 -3.56136 -82.8487
rradius 31.9229
rwrist 19.7077
rhand -17.9782 7.62027
rfingers 7.12502
rthumb 8.29134 -22.197
lclavicle -7.20719e-014 4.37326e-015
lhumerus -21.8156 -6.19835 90.8498
lradius 69.8351
lwrist -0.839923
lhand -29.8822 22.2227
lfingers 7.12502
lthumb -3.20373 52.1783
rfemur -9.21331 10.0741 14.7022
rtibia 24.1967
rfoot -14.8405 -2.95331
rtoes 4.75106
lfemur 0.456953 -1.79467 -21.8791
ltibia 10.6906
lfoot -9.31378 7.49766
ltoes -11.5337
